# xmcd
#
# Track frame offsets:
#	150
#	3554
#	15410
#	23314
#	29447
#	38942
#	46752
#	57767
#	68582
#	81719
#	91592
#	101400
#	113867
#	129435
#	142278
#	154255
#	163805
#	175435
#	180179
#	192209
#	204398
#	211011
#	224843
#	235641
#	246013
#	261552
#	277106
#	293354
#	302316
#
# Disc length: 4277
#
# Revision: 2
# Processed by: cddbd v1.5.1PL0 Copyright (c) Steve Scherf et al.
# Submitted via: ExactAudioCopy v0.90b4
# Normalized: r1:TDELIM( - )
#
DISCID=8b10b31d
DTITLE=Clubjoint Allstars - Showtime
DYEAR=2002
DGENRE=R&B
TTITLE0=Clubjoint Allstars - Intro
TTITLE1=Ja Rule feat. Charlie Balitmore - Down Ass Bitch
TTITLE2=Lil Keke - Platinum In Da Ghetto
TTITLE3=Joe - Let's Stay Home Tonight
TTITLE4=Knockturnal feat. Dr. Dre and Missy Elliot - Knoc
TTITLE5=P. Diddy feat. Usher and Loon - I Need A Girl
TTITLE6=DMX feat. Faith Evans - I Miss You
TTITLE7=Ja Rule feat. Christian Milian - Get Away
TTITLE8=Fat Joe feat. Ja Rule and Ashanti - What's Luv?
TTITLE9=Fabolous feat. P. Diddy and Jagged Edge - Trade It All
TTITLE10=Latrelle - Dirty Girl
TTITLE11=Naughty By Nature feat. 3LW - Feels Good
TTITLE12=Daz Dillinger feat. Kurupt and Lataya Williams - Feels Good
TTITLE13=Krazie Bone feat. La Reece - If They Only Knew
TTITLE14=Nesian Mystik - Nesian Style
TTITLE15=Nate Dogg - Your Woman Has Been Sighted
TTITLE16=Mariah Carey - Think Of You
TTITLE17=Clubjoint Allstars - Showtime Intro
TTITLE18=R. Kelly and Jay-Z - Honey
TTITLE19=Coo Coo Cal feat. Koffee Brown - How Does It Feel To Ya
TTITLE20=N'Sync feat. Nelly - Girlfriend
TTITLE21=Kelly Price - Take It To The Head
TTITLE22=Shaggy feat. Latrelle - Swingin'
TTITLE23=R. Kelly and Jay-Z - Take You Home With Me
TTITLE24=3rd Storee feat. Joe Buddens - Get With Me
TTITLE25=Redman and Method Man - How High Pt. 2
TTITLE26=Tweet - Oops (Oh My)
TTITLE27=Toya - I Do
TTITLE28=Busta Rhymes - Break Ya Neck
EXTD=
EXTT0=
EXTT1=
EXTT2=
EXTT3=
EXTT4=
EXTT5=
EXTT6=
EXTT7=
EXTT8=
EXTT9=
EXTT10=
EXTT11=
EXTT12=
EXTT13=
EXTT14=
EXTT15=
EXTT16=
EXTT17=
EXTT18=
EXTT19=
EXTT20=
EXTT21=
EXTT22=
EXTT23=
EXTT24=
EXTT25=
EXTT26=
EXTT27=
EXTT28=
PLAYORDER=
